<?xml version="1.0" standalone="no"?>
<!DOCTYPE svg PUBLIC "-//W3C//DTD SVG 20010904//EN"
 "http://www.w3.org/TR/2001/REC-SVG-20010904/DTD/svg10.dtd">
<svg version="1.0" xmlns="http://www.w3.org/2000/svg"
 width="1261.000000pt" height="1280.000000pt" viewBox="0 0 1261.000000 1280.000000"
 preserveAspectRatio="xMidYMid meet">
<metadata>
Created by potrace 1.15, written by Peter Selinger 2001-2017
</metadata>
<g transform="translate(0.000000,1280.000000) scale(0.100000,-0.100000)"
fill="#000000" stroke="none">
<path d="M11072 12720 c-288 -43 -525 -80 -527 -82 -4 -4 326 -2331 331 -2337
3 -4 1075 139 1081 143 2 1 -46 349 -106 772 -60 423 -135 952 -167 1177 -48
343 -60 407 -73 406 -9 -1 -252 -37 -539 -79z"/>
<path d="M11440 10003 c-278 -41 -508 -78 -511 -81 -3 -4 16 -158 42 -342 27
-184 71 -497 99 -695 28 -198 77 -549 110 -780 33 -231 104 -739 159 -1130 55
-390 108 -764 118 -830 14 -96 18 -182 17 -435 0 -296 -2 -324 -26 -460 -15
-80 -43 -200 -62 -267 -43 -149 -1187 -3009 -1253 -3133 -137 -257 -322 -423
-529 -474 -33 -8 -171 -29 -309 -46 -247 -30 -572 -75 -629 -87 l-30 -5 31 38
c113 145 232 392 287 594 49 183 60 271 60 485 0 193 -11 302 -45 427 l-9 36
-258 -65 c-141 -36 -260 -69 -264 -72 -4 -3 7 -57 23 -119 17 -63 29 -115 27
-116 -2 -2 -88 -67 -193 -145 -104 -78 -191 -146 -193 -150 -1 -4 29 -121 68
-260 38 -138 70 -258 70 -266 0 -23 -134 -176 -212 -241 -195 -164 -412 -263
-650 -298 -130 -20 -204 -20 -333 -1 -118 17 -222 45 -321 86 l-71 30 -68 264
c-50 196 -72 266 -84 269 -9 2 -120 17 -247 32 l-231 28 -29 105 c-29 105 -29
106 -59 105 -29 0 -468 -110 -492 -123 -19 -10 58 -225 132 -370 215 -415 583
-733 1033 -891 l103 -37 33 -80 c113 -280 314 -421 686 -481 144 -23 628 -22
895 2 559 50 1527 177 1721 226 505 127 834 469 1142 1185 98 228 1320 3359
1346 3448 83 285 96 660 41 1135 -9 70 -67 498 -130 952 -157 1119 -157 1123
-300 2145 -68 495 -127 915 -130 933 -5 29 -9 32 -38 31 -18 -1 -259 -35 -537
-76z"/>
<path d="M7235 9030 c-77 -21 -279 -74 -450 -119 -170 -44 -533 -139 -805
-211 -272 -72 -634 -167 -805 -211 -170 -45 -366 -96 -435 -114 -69 -19 -334
-88 -590 -155 -256 -67 -607 -159 -780 -204 -173 -46 -457 -120 -630 -166
-173 -45 -369 -97 -435 -114 l-120 -32 -25 -203 -25 -203 -700 -402 c-385
-221 -734 -424 -775 -451 -41 -27 -122 -97 -180 -155 -116 -115 -167 -197
-212 -340 -20 -67 -23 -94 -23 -250 1 -132 5 -194 19 -250 36 -154 47 -129
-119 -259 -102 -80 -144 -119 -141 -130 3 -9 73 -279 156 -601 84 -322 176
-676 205 -788 28 -111 55 -205 58 -208 3 -4 86 -27 183 -54 l178 -47 35 -89
c106 -262 317 -482 599 -623 100 -50 258 -99 357 -110 141 -16 1402 -44 1706
-38 183 3 306 11 369 21 335 57 532 179 611 377 35 89 131 482 264 1084 69
314 141 629 160 700 19 72 55 222 80 334 88 386 163 573 281 700 188 202 431
193 706 -28 125 -101 497 -496 974 -1036 429 -487 772 -856 839 -904 234 -168
537 -126 1048 147 76 40 314 177 530 303 216 127 520 306 677 397 264 155 291
173 375 257 273 270 410 667 349 1011 l-15 89 140 135 141 135 -66 250 c-36
138 -130 497 -209 798 -79 302 -145 550 -147 552 -2 2 -81 17 -177 34 -95 16
-174 31 -176 33 -1 2 -19 53 -39 113 -141 425 -371 633 -767 695 -63 10 -947
26 -1631 29 l-147 1 -122 170 c-76 107 -127 170 -137 169 -10 0 -80 -18 -157
-39z m2037 -920 c123 -38 244 -127 344 -254 68 -85 151 -243 183 -346 57 -183
381 -1429 386 -1488 13 -128 -27 -333 -96 -495 -39 -92 -129 -228 -177 -265
-42 -34 -1093 -690 -1192 -745 -157 -86 -305 -127 -464 -127 -167 0 -275 34
-388 121 -32 25 -324 347 -685 754 -346 391 -774 874 -952 1075 -178 201 -346
398 -373 438 -216 318 -208 614 21 774 126 88 224 112 916 227 425 71 626 104
1420 231 242 38 517 83 610 99 198 35 337 35 447 1z m-4913 -1002 c138 -51
227 -161 271 -335 26 -101 34 -238 22 -350 -13 -111 -613 -2817 -642 -2895
-96 -258 -368 -421 -725 -435 -116 -4 -1258 46 -1400 62 -64 7 -181 58 -265
115 -145 97 -322 300 -379 433 -11 26 -78 269 -147 540 -70 271 -151 587 -181
702 -80 311 -85 336 -85 480 -1 154 23 267 80 385 43 88 143 199 224 247 29
18 175 78 323 134 746 280 2170 798 2447 889 184 61 341 71 457 28z"/>
<path d="M5515 5449 c-110 -131 -256 -677 -534 -1989 -44 -206 -78 -376 -77
-378 3 -3 74 15 729 189 864 229 1032 273 1322 349 171 45 313 85 316 88 6 7
-461 545 -844 972 -243 271 -584 620 -685 701 -131 106 -182 121 -227 68z"/>
</g>
</svg>
